<?xml version="1.0" encoding="UTF-8" standalone="no"?>
<svg
   xmlns:dc="http://purl.org/dc/elements/1.1/"
   xmlns:cc="http://creativecommons.org/ns#"
   xmlns:rdf="http://www.w3.org/1999/02/22-rdf-syntax-ns#"
   xmlns:svg="http://www.w3.org/2000/svg"
   xmlns="http://www.w3.org/2000/svg"
   xmlns:sodipodi="http://sodipodi.sourceforge.net/DTD/sodipodi-0.dtd"
   xmlns:inkscape="http://www.inkscape.org/namespaces/inkscape"
   width="640"
   height="480"
   id="svg3984"
   version="1.1"
   inkscape:version="0.48.2 r9819"
   sodipodi:docname="ornate.svg"
   inkscape:export-filename="/Users/jmacdonald/Projects/triage_website/source/images/divider.png"
   inkscape:export-xdpi="180.94148"
   inkscape:export-ydpi="180.94148">
  <defs
     id="defs3997">
    <filter
       inkscape:collect="always"
       id="filter3871"
       x="-0.019708903"
       width="1.0394178"
       y="-0.20759534"
       height="1.4151907">
      <feGaussianBlur
         inkscape:collect="always"
         stdDeviation="0.86048137"
         id="feGaussianBlur3873" />
    </filter>
  </defs>
  <sodipodi:namedview
     pagecolor="#3c677d"
     bordercolor="#666666"
     borderopacity="1"
     objecttolerance="10"
     gridtolerance="10"
     guidetolerance="10"
     inkscape:pageopacity="0"
     inkscape:pageshadow="2"
     inkscape:window-width="1280"
     inkscape:window-height="752"
     id="namedview3995"
     showgrid="false"
     inkscape:zoom="1.9666667"
     inkscape:cx="231.14617"
     inkscape:cy="240"
     inkscape:window-x="0"
     inkscape:window-y="0"
     inkscape:window-maximized="1"
     inkscape:current-layer="svg3984" />
  <metadata
     id="metadata15">image/svg+xml<rdf:RDF>
  <cc:Work
     rdf:about="">
    <dc:format>image/svg+xml</dc:format>
    <dc:type
       rdf:resource="http://purl.org/dc/dcmitype/StillImage" />
    <dc:title></dc:title>
  </cc:Work>
</rdf:RDF>
</metadata>
  <g
     id="g4511"
     style="fill:#ffffff;fill-opacity:1;opacity:0.79906542"
     inkscape:export-xdpi="180.94148"
     inkscape:export-ydpi="180.94148">
    <path
       d="m 285.89336,212.63083 c 1.2586,-1.20658 0.86447,-2.97828 -0.21133,-3.48943 -1.89786,-0.93375 -3.97226,1.01509 -3.02156,2.95404 0.94882,1.99584 3.324,3.39106 6.55749,3.79001 7.01501,0.83957 20.89052,-4.33341 29.69024,-5.91636 6.53699,-1.17591 10.53017,0.59106 12.68483,2.54805 -4.42849,-2.12495 -8.46474,-1.3859 -12.61861,-0.86417 -9.5309,1.19708 -19.38935,6.27962 -29.83577,5.48017 -4.87717,-0.49356 -8.29444,-3.77427 -8.01343,-6.34679 0.025,-0.22861 0.0791,-0.45163 0.16411,-0.66661 0.642,-1.52457 1.77001,-2.14985 2.76931,-2.33532 2.71637,-0.50415 5.40722,2.8496 1.83472,4.84641 z"
       id="path2383"
       inkscape:connector-curvature="0"
       style="fill:#ffffff;fill-opacity:1;fill-rule:evenodd;stroke-width:1px" />
    <path
       id="path2390"
       d="m 284.54425,215.13593 c -0.96273,-0.9388 -1.95591,-2.39592 -2.84209,-3.04049 -9.3169,-6.77666 -14.09202,2.37855 -9.31427,5.00955 0.73722,0.40597 2.26497,0.64966 3.35943,-0.9668 -1.33925,1.12222 -2.82534,0.73691 -3.43924,0.15666 -1.63421,-1.54462 -1.06112,-3.73631 0.86072,-4.73727 3.02707,-1.27007 5.76121,0.0886 8.15376,1.97273 1.70881,1.12516 2.14734,1.65025 3.52423,2.33778 -0.78225,0.0357 -0.3713,-1.09399 -1.1157,-1.62413 l 0.81316,0.89197 z"
       inkscape:connector-curvature="0"
       style="fill:#ffffff;fill-opacity:1;fill-rule:evenodd;stroke-width:1px" />
    <path
       d="m 359.90645,212.23241 c -1.25861,1.20658 -0.86448,2.97828 0.21133,3.48943 1.89785,0.93375 3.97226,-1.01509 3.02156,-2.95404 -0.94882,-1.99584 -3.32401,-3.39106 -6.55749,-3.79 -7.01502,-0.83958 -20.89053,4.3334 -29.69025,5.91635 -6.53698,1.17591 -10.53016,-0.59106 -12.68483,-2.54805 4.4285,2.12495 8.46474,1.3859 12.61861,0.86417 9.53091,-1.19708 19.38936,-6.27962 29.83578,-5.48017 4.87716,0.49356 8.29443,3.77427 8.01342,6.34679 -0.025,0.22862 -0.0791,0.45164 -0.1641,0.66661 -0.642,1.52457 -1.77002,2.14985 -2.76931,2.33532 -2.71637,0.50415 -5.40723,-2.8496 -1.83472,-4.84641 z"
       id="path2479"
       inkscape:connector-curvature="0"
       style="fill:#ffffff;fill-opacity:1;fill-rule:evenodd;stroke-width:1px" />
    <path
       id="path2481"
       d="m 361.25556,209.72732 c 0.96272,0.93879 1.95591,2.39591 2.84208,3.04048 9.3169,6.77667 14.09202,-2.37855 9.31428,-5.00955 -0.73722,-0.40597 -2.26498,-0.64965 -3.35943,0.9668 1.33924,-1.12222 2.82533,-0.7369 3.43923,-0.15666 1.63421,1.54462 1.06112,3.73631 -0.86071,4.73728 -3.02707,1.27006 -5.76121,-0.0886 -8.15377,-1.97274 -1.70881,-1.12516 -2.14734,-1.65025 -3.52422,-2.33778 0.78224,-0.0357 0.3713,1.09399 1.11569,1.62413 l -0.81315,-0.89196 z"
       inkscape:connector-curvature="0"
       style="fill:#ffffff;fill-opacity:1;fill-rule:evenodd;stroke-width:1px" />
  </g>
  <g
     id="g3069"
     style="fill:#ffffff;fill-opacity:1;filter:url(#filter3871);opacity:1">
    <path
       style="fill:#ffffff;fill-opacity:1;fill-rule:evenodd;stroke-width:1px"
       inkscape:connector-curvature="0"
       id="path3071"
       d="m 285.89336,212.63083 c 1.2586,-1.20658 0.86447,-2.97828 -0.21133,-3.48943 -1.89786,-0.93375 -3.97226,1.01509 -3.02156,2.95404 0.94882,1.99584 3.324,3.39106 6.55749,3.79001 7.01501,0.83957 20.89052,-4.33341 29.69024,-5.91636 6.53699,-1.17591 10.53017,0.59106 12.68483,2.54805 -4.42849,-2.12495 -8.46474,-1.3859 -12.61861,-0.86417 -9.5309,1.19708 -19.38935,6.27962 -29.83577,5.48017 -4.87717,-0.49356 -8.29444,-3.77427 -8.01343,-6.34679 0.025,-0.22861 0.0791,-0.45163 0.16411,-0.66661 0.642,-1.52457 1.77001,-2.14985 2.76931,-2.33532 2.71637,-0.50415 5.40722,2.8496 1.83472,4.84641 z" />
    <path
       style="fill:#ffffff;fill-opacity:1;fill-rule:evenodd;stroke-width:1px"
       inkscape:connector-curvature="0"
       d="m 284.54425,215.13593 c -0.96273,-0.9388 -1.95591,-2.39592 -2.84209,-3.04049 -9.3169,-6.77666 -14.09202,2.37855 -9.31427,5.00955 0.73722,0.40597 2.26497,0.64966 3.35943,-0.9668 -1.33925,1.12222 -2.82534,0.73691 -3.43924,0.15666 -1.63421,-1.54462 -1.06112,-3.73631 0.86072,-4.73727 3.02707,-1.27007 5.76121,0.0886 8.15376,1.97273 1.70881,1.12516 2.14734,1.65025 3.52423,2.33778 -0.78225,0.0357 -0.3713,-1.09399 -1.1157,-1.62413 l 0.81316,0.89197 z"
       id="path3073" />
    <path
       style="fill:#ffffff;fill-opacity:1;fill-rule:evenodd;stroke-width:1px"
       inkscape:connector-curvature="0"
       id="path3075"
       d="m 359.90645,212.23241 c -1.25861,1.20658 -0.86448,2.97828 0.21133,3.48943 1.89785,0.93375 3.97226,-1.01509 3.02156,-2.95404 -0.94882,-1.99584 -3.32401,-3.39106 -6.55749,-3.79 -7.01502,-0.83958 -20.89053,4.3334 -29.69025,5.91635 -6.53698,1.17591 -10.53016,-0.59106 -12.68483,-2.54805 4.4285,2.12495 8.46474,1.3859 12.61861,0.86417 9.53091,-1.19708 19.38936,-6.27962 29.83578,-5.48017 4.87716,0.49356 8.29443,3.77427 8.01342,6.34679 -0.025,0.22862 -0.0791,0.45164 -0.1641,0.66661 -0.642,1.52457 -1.77002,2.14985 -2.76931,2.33532 -2.71637,0.50415 -5.40723,-2.8496 -1.83472,-4.84641 z" />
    <path
       style="fill:#ffffff;fill-opacity:1;fill-rule:evenodd;stroke-width:1px"
       inkscape:connector-curvature="0"
       d="m 361.25556,209.72732 c 0.96272,0.93879 1.95591,2.39591 2.84208,3.04048 9.3169,6.77667 14.09202,-2.37855 9.31428,-5.00955 -0.73722,-0.40597 -2.26498,-0.64965 -3.35943,0.9668 1.33924,-1.12222 2.82533,-0.7369 3.43923,-0.15666 1.63421,1.54462 1.06112,3.73631 -0.86071,4.73728 -3.02707,1.27006 -5.76121,-0.0886 -8.15377,-1.97274 -1.70881,-1.12516 -2.14734,-1.65025 -3.52422,-2.33778 0.78224,-0.0357 0.3713,1.09399 1.11569,1.62413 l -0.81315,-0.89196 z"
       id="path3077" />
  </g>
</svg>
